<mxfile host="app.diagrams.net" modified="2023-10-20T17:43:03.268Z" agent="Mozilla/5.0 (Windows NT 10.0; Win64; x64) AppleWebKit/537.36 (KHTML, like Gecko) Chrome/118.0.0.0 Safari/537.36 Edg/118.0.2088.57" etag="7b15W3avtnQnSL7ovx7r" version="22.0.6" type="github">
  <diagram name="PÃ¡gina-1" id="O5B5RIOYgE9C8spY2SOB">
    <mxGraphModel dx="2213" dy="1920" grid="1" gridSize="10" guides="1" tooltips="1" connect="1" arrows="1" fold="1" page="1" pageScale="1" pageWidth="827" pageHeight="1169" math="0" shadow="0">
      <root>
        <mxCell id="0" />
        <mxCell id="1" parent="0" />
        <mxCell id="CCkN2sUoQMnRnyJqYmDi-1" value="Localidad" style="whiteSpace=wrap;html=1;align=center;" parent="1" vertex="1">
          <mxGeometry x="70" y="130" width="100" height="40" as="geometry" />
        </mxCell>
        <mxCell id="CCkN2sUoQMnRnyJqYmDi-2" value="Nombre" style="ellipse;whiteSpace=wrap;html=1;align=center;" parent="1" vertex="1">
          <mxGeometry x="-70" y="90" width="100" height="40" as="geometry" />
        </mxCell>
        <mxCell id="CCkN2sUoQMnRnyJqYmDi-3" value="Poblacion" style="ellipse;whiteSpace=wrap;html=1;align=center;" parent="1" vertex="1">
          <mxGeometry x="-70" y="165" width="100" height="40" as="geometry" />
        </mxCell>
        <mxCell id="CCkN2sUoQMnRnyJqYmDi-4" value="Provincia" style="whiteSpace=wrap;html=1;align=center;" parent="1" vertex="1">
          <mxGeometry x="450" y="130" width="100" height="40" as="geometry" />
        </mxCell>
        <mxCell id="CCkN2sUoQMnRnyJqYmDi-5" value="Nombre" style="ellipse;whiteSpace=wrap;html=1;align=center;" parent="1" vertex="1">
          <mxGeometry x="480" y="-20" width="100" height="40" as="geometry" />
        </mxCell>
        <mxCell id="CCkN2sUoQMnRnyJqYmDi-6" value="Poblacion" style="ellipse;whiteSpace=wrap;html=1;align=center;" parent="1" vertex="1">
          <mxGeometry x="580" y="5" width="100" height="40" as="geometry" />
        </mxCell>
        <mxCell id="CCkN2sUoQMnRnyJqYmDi-7" value="Superficie" style="ellipse;whiteSpace=wrap;html=1;align=center;" parent="1" vertex="1">
          <mxGeometry x="650" y="55" width="100" height="40" as="geometry" />
        </mxCell>
        <mxCell id="CCkN2sUoQMnRnyJqYmDi-8" value="Comunidad Autonoma" style="whiteSpace=wrap;html=1;align=center;" parent="1" vertex="1">
          <mxGeometry x="450" y="370" width="100" height="40" as="geometry" />
        </mxCell>
        <mxCell id="CCkN2sUoQMnRnyJqYmDi-10" value="Poblacion" style="ellipse;whiteSpace=wrap;html=1;align=center;" parent="1" vertex="1">
          <mxGeometry x="340" y="440" width="100" height="40" as="geometry" />
        </mxCell>
        <mxCell id="CCkN2sUoQMnRnyJqYmDi-11" value="Superficie" style="ellipse;whiteSpace=wrap;html=1;align=center;" parent="1" vertex="1">
          <mxGeometry x="500" y="440" width="100" height="40" as="geometry" />
        </mxCell>
        <mxCell id="CCkN2sUoQMnRnyJqYmDi-12" value="Codigo provincial" style="ellipse;whiteSpace=wrap;html=1;align=center;fontStyle=4;" parent="1" vertex="1">
          <mxGeometry x="670" y="105" width="100" height="40" as="geometry" />
        </mxCell>
        <mxCell id="CCkN2sUoQMnRnyJqYmDi-14" value="Pertenece" style="shape=rhombus;perimeter=rhombusPerimeter;whiteSpace=wrap;html=1;align=center;" parent="1" vertex="1">
          <mxGeometry x="250" y="120" width="120" height="60" as="geometry" />
        </mxCell>
        <mxCell id="CCkN2sUoQMnRnyJqYmDi-16" value="" style="line;strokeWidth=1;rotatable=0;dashed=0;labelPosition=right;align=left;verticalAlign=middle;spacingTop=0;spacingLeft=6;points=[];portConstraint=eastwest;" parent="1" vertex="1">
          <mxGeometry x="170" y="145" width="80" height="10" as="geometry" />
        </mxCell>
        <mxCell id="CCkN2sUoQMnRnyJqYmDi-17" value="" style="line;strokeWidth=1;rotatable=0;dashed=0;labelPosition=right;align=left;verticalAlign=middle;spacingTop=0;spacingLeft=6;points=[];portConstraint=eastwest;" parent="1" vertex="1">
          <mxGeometry x="370" y="145" width="80" height="10" as="geometry" />
        </mxCell>
        <mxCell id="CCkN2sUoQMnRnyJqYmDi-18" value="1,1" style="text;strokeColor=none;fillColor=none;spacingLeft=4;spacingRight=4;overflow=hidden;rotatable=0;points=[[0,0.5],[1,0.5]];portConstraint=eastwest;fontSize=12;whiteSpace=wrap;html=1;" parent="1" vertex="1">
          <mxGeometry x="410" y="130" width="40" height="30" as="geometry" />
        </mxCell>
        <mxCell id="CCkN2sUoQMnRnyJqYmDi-19" value="1, n" style="text;strokeColor=none;fillColor=none;spacingLeft=4;spacingRight=4;overflow=hidden;rotatable=0;points=[[0,0.5],[1,0.5]];portConstraint=eastwest;fontSize=12;whiteSpace=wrap;html=1;" parent="1" vertex="1">
          <mxGeometry x="170" y="130" width="40" height="30" as="geometry" />
        </mxCell>
        <mxCell id="CCkN2sUoQMnRnyJqYmDi-20" value="Relationship" style="shape=rhombus;perimeter=rhombusPerimeter;whiteSpace=wrap;html=1;align=center;" parent="1" vertex="1">
          <mxGeometry x="440" y="240" width="120" height="60" as="geometry" />
        </mxCell>
        <mxCell id="CCkN2sUoQMnRnyJqYmDi-23" value="" style="endArrow=none;html=1;rounded=0;entryX=0.5;entryY=1;entryDx=0;entryDy=0;exitX=0.5;exitY=0;exitDx=0;exitDy=0;" parent="1" source="CCkN2sUoQMnRnyJqYmDi-20" target="CCkN2sUoQMnRnyJqYmDi-4" edge="1">
          <mxGeometry relative="1" as="geometry">
            <mxPoint x="330" y="390" as="sourcePoint" />
            <mxPoint x="490" y="390" as="targetPoint" />
          </mxGeometry>
        </mxCell>
        <mxCell id="CCkN2sUoQMnRnyJqYmDi-24" value="" style="endArrow=none;html=1;rounded=0;entryX=0.5;entryY=1;entryDx=0;entryDy=0;exitX=0.5;exitY=0;exitDx=0;exitDy=0;" parent="1" edge="1">
          <mxGeometry relative="1" as="geometry">
            <mxPoint x="499.5" y="370" as="sourcePoint" />
            <mxPoint x="499.5" y="300" as="targetPoint" />
          </mxGeometry>
        </mxCell>
        <mxCell id="CCkN2sUoQMnRnyJqYmDi-26" value="1,n" style="text;strokeColor=none;fillColor=none;spacingLeft=4;spacingRight=4;overflow=hidden;rotatable=0;points=[[0,0.5],[1,0.5]];portConstraint=eastwest;fontSize=12;whiteSpace=wrap;html=1;" parent="1" vertex="1">
          <mxGeometry x="500" y="170" width="40" height="30" as="geometry" />
        </mxCell>
        <mxCell id="CCkN2sUoQMnRnyJqYmDi-27" value="1,1" style="text;strokeColor=none;fillColor=none;spacingLeft=4;spacingRight=4;overflow=hidden;rotatable=0;points=[[0,0.5],[1,0.5]];portConstraint=eastwest;fontSize=12;whiteSpace=wrap;html=1;" parent="1" vertex="1">
          <mxGeometry x="500" y="340" width="40" height="30" as="geometry" />
        </mxCell>
        <mxCell id="CCkN2sUoQMnRnyJqYmDi-28" value="Capital" style="shape=rhombus;perimeter=rhombusPerimeter;whiteSpace=wrap;html=1;align=center;" parent="1" vertex="1">
          <mxGeometry x="250" y="20" width="120" height="60" as="geometry" />
        </mxCell>
        <mxCell id="CCkN2sUoQMnRnyJqYmDi-29" value="Capital" style="shape=rhombus;perimeter=rhombusPerimeter;whiteSpace=wrap;html=1;align=center;" parent="1" vertex="1">
          <mxGeometry x="590" y="240" width="120" height="60" as="geometry" />
        </mxCell>
        <mxCell id="CCkN2sUoQMnRnyJqYmDi-30" value="" style="endArrow=none;html=1;rounded=0;entryX=0;entryY=0.5;entryDx=0;entryDy=0;exitX=0.5;exitY=0;exitDx=0;exitDy=0;" parent="1" source="CCkN2sUoQMnRnyJqYmDi-1" target="CCkN2sUoQMnRnyJqYmDi-28" edge="1">
          <mxGeometry relative="1" as="geometry">
            <mxPoint x="360" y="290" as="sourcePoint" />
            <mxPoint x="520" y="290" as="targetPoint" />
            <Array as="points">
              <mxPoint x="120" y="50" />
            </Array>
          </mxGeometry>
        </mxCell>
        <mxCell id="CCkN2sUoQMnRnyJqYmDi-31" value="" style="endArrow=none;html=1;rounded=0;exitX=1;exitY=0.5;exitDx=0;exitDy=0;entryX=0.5;entryY=0;entryDx=0;entryDy=0;" parent="1" source="CCkN2sUoQMnRnyJqYmDi-28" target="CCkN2sUoQMnRnyJqYmDi-4" edge="1">
          <mxGeometry relative="1" as="geometry">
            <mxPoint x="360" y="290" as="sourcePoint" />
            <mxPoint x="520" y="290" as="targetPoint" />
            <Array as="points">
              <mxPoint x="500" y="50" />
            </Array>
          </mxGeometry>
        </mxCell>
        <mxCell id="CCkN2sUoQMnRnyJqYmDi-32" value="" style="endArrow=none;html=1;rounded=0;exitX=1;exitY=0.5;exitDx=0;exitDy=0;entryX=0.5;entryY=0;entryDx=0;entryDy=0;" parent="1" source="CCkN2sUoQMnRnyJqYmDi-4" target="CCkN2sUoQMnRnyJqYmDi-29" edge="1">
          <mxGeometry relative="1" as="geometry">
            <mxPoint x="360" y="290" as="sourcePoint" />
            <mxPoint x="520" y="290" as="targetPoint" />
            <Array as="points">
              <mxPoint x="650" y="150" />
            </Array>
          </mxGeometry>
        </mxCell>
        <mxCell id="CCkN2sUoQMnRnyJqYmDi-33" value="" style="endArrow=none;html=1;rounded=0;exitX=1;exitY=0.5;exitDx=0;exitDy=0;entryX=0.5;entryY=1;entryDx=0;entryDy=0;" parent="1" source="CCkN2sUoQMnRnyJqYmDi-8" target="CCkN2sUoQMnRnyJqYmDi-29" edge="1">
          <mxGeometry relative="1" as="geometry">
            <mxPoint x="360" y="290" as="sourcePoint" />
            <mxPoint x="520" y="290" as="targetPoint" />
            <Array as="points">
              <mxPoint x="650" y="390" />
            </Array>
          </mxGeometry>
        </mxCell>
        <mxCell id="CCkN2sUoQMnRnyJqYmDi-34" value="1, 1" style="text;strokeColor=none;fillColor=none;spacingLeft=4;spacingRight=4;overflow=hidden;rotatable=0;points=[[0,0.5],[1,0.5]];portConstraint=eastwest;fontSize=12;whiteSpace=wrap;html=1;" parent="1" vertex="1">
          <mxGeometry x="550" y="150" width="40" height="30" as="geometry" />
        </mxCell>
        <mxCell id="CCkN2sUoQMnRnyJqYmDi-35" value="1, 1" style="text;strokeColor=none;fillColor=none;spacingLeft=4;spacingRight=4;overflow=hidden;rotatable=0;points=[[0,0.5],[1,0.5]];portConstraint=eastwest;fontSize=12;whiteSpace=wrap;html=1;" parent="1" vertex="1">
          <mxGeometry x="550" y="370" width="40" height="30" as="geometry" />
        </mxCell>
        <mxCell id="CCkN2sUoQMnRnyJqYmDi-36" value="1, 1" style="text;strokeColor=none;fillColor=none;spacingLeft=4;spacingRight=4;overflow=hidden;rotatable=0;points=[[0,0.5],[1,0.5]];portConstraint=eastwest;fontSize=12;whiteSpace=wrap;html=1;" parent="1" vertex="1">
          <mxGeometry x="460" y="100" width="40" height="30" as="geometry" />
        </mxCell>
        <mxCell id="CCkN2sUoQMnRnyJqYmDi-37" value="1, 1" style="text;strokeColor=none;fillColor=none;spacingLeft=4;spacingRight=4;overflow=hidden;rotatable=0;points=[[0,0.5],[1,0.5]];portConstraint=eastwest;fontSize=12;whiteSpace=wrap;html=1;" parent="1" vertex="1">
          <mxGeometry x="120" y="100" width="40" height="30" as="geometry" />
        </mxCell>
        <mxCell id="CCkN2sUoQMnRnyJqYmDi-38" value="" style="endArrow=none;html=1;rounded=0;exitX=1;exitY=0.5;exitDx=0;exitDy=0;entryX=0;entryY=0.25;entryDx=0;entryDy=0;" parent="1" source="CCkN2sUoQMnRnyJqYmDi-2" target="CCkN2sUoQMnRnyJqYmDi-1" edge="1">
          <mxGeometry relative="1" as="geometry">
            <mxPoint x="360" y="290" as="sourcePoint" />
            <mxPoint x="520" y="290" as="targetPoint" />
          </mxGeometry>
        </mxCell>
        <mxCell id="CCkN2sUoQMnRnyJqYmDi-39" value="" style="endArrow=none;html=1;rounded=0;exitX=1;exitY=0.5;exitDx=0;exitDy=0;entryX=0;entryY=0.75;entryDx=0;entryDy=0;" parent="1" source="CCkN2sUoQMnRnyJqYmDi-3" target="CCkN2sUoQMnRnyJqYmDi-1" edge="1">
          <mxGeometry relative="1" as="geometry">
            <mxPoint x="40" y="120" as="sourcePoint" />
            <mxPoint x="80" y="150" as="targetPoint" />
          </mxGeometry>
        </mxCell>
        <mxCell id="CCkN2sUoQMnRnyJqYmDi-40" value="Id localidad" style="ellipse;whiteSpace=wrap;html=1;align=center;fontStyle=4;" parent="1" vertex="1">
          <mxGeometry x="-20" y="250" width="100" height="40" as="geometry" />
        </mxCell>
        <mxCell id="CCkN2sUoQMnRnyJqYmDi-42" value="" style="endArrow=none;html=1;rounded=0;exitX=0.5;exitY=0;exitDx=0;exitDy=0;entryX=0.25;entryY=1;entryDx=0;entryDy=0;" parent="1" source="CCkN2sUoQMnRnyJqYmDi-40" target="CCkN2sUoQMnRnyJqYmDi-1" edge="1">
          <mxGeometry relative="1" as="geometry">
            <mxPoint x="360" y="290" as="sourcePoint" />
            <mxPoint x="520" y="290" as="targetPoint" />
          </mxGeometry>
        </mxCell>
        <mxCell id="CCkN2sUoQMnRnyJqYmDi-43" value="Nombre" style="ellipse;whiteSpace=wrap;html=1;align=center;fontStyle=4;" parent="1" vertex="1">
          <mxGeometry x="314" y="350" width="100" height="40" as="geometry" />
        </mxCell>
        <mxCell id="CCkN2sUoQMnRnyJqYmDi-44" value="" style="endArrow=none;html=1;rounded=0;exitX=1;exitY=0.5;exitDx=0;exitDy=0;entryX=0;entryY=0.5;entryDx=0;entryDy=0;" parent="1" source="CCkN2sUoQMnRnyJqYmDi-43" target="CCkN2sUoQMnRnyJqYmDi-8" edge="1">
          <mxGeometry relative="1" as="geometry">
            <mxPoint x="360" y="290" as="sourcePoint" />
            <mxPoint x="520" y="290" as="targetPoint" />
          </mxGeometry>
        </mxCell>
        <mxCell id="CCkN2sUoQMnRnyJqYmDi-45" value="" style="endArrow=none;html=1;rounded=0;exitX=1;exitY=0.5;exitDx=0;exitDy=0;entryX=0.25;entryY=1;entryDx=0;entryDy=0;" parent="1" source="CCkN2sUoQMnRnyJqYmDi-10" target="CCkN2sUoQMnRnyJqYmDi-8" edge="1">
          <mxGeometry relative="1" as="geometry">
            <mxPoint x="360" y="290" as="sourcePoint" />
            <mxPoint x="520" y="290" as="targetPoint" />
          </mxGeometry>
        </mxCell>
        <mxCell id="CCkN2sUoQMnRnyJqYmDi-46" value="" style="endArrow=none;html=1;rounded=0;exitX=0.5;exitY=1;exitDx=0;exitDy=0;entryX=0.5;entryY=0;entryDx=0;entryDy=0;" parent="1" source="CCkN2sUoQMnRnyJqYmDi-8" target="CCkN2sUoQMnRnyJqYmDi-11" edge="1">
          <mxGeometry relative="1" as="geometry">
            <mxPoint x="360" y="290" as="sourcePoint" />
            <mxPoint x="520" y="290" as="targetPoint" />
          </mxGeometry>
        </mxCell>
        <mxCell id="CCkN2sUoQMnRnyJqYmDi-47" value="" style="endArrow=none;html=1;rounded=0;" parent="1" target="CCkN2sUoQMnRnyJqYmDi-5" edge="1">
          <mxGeometry relative="1" as="geometry">
            <mxPoint x="510" y="130" as="sourcePoint" />
            <mxPoint x="520" y="290" as="targetPoint" />
          </mxGeometry>
        </mxCell>
        <mxCell id="CCkN2sUoQMnRnyJqYmDi-48" value="" style="endArrow=none;html=1;rounded=0;exitX=0.75;exitY=0;exitDx=0;exitDy=0;entryX=0;entryY=0.5;entryDx=0;entryDy=0;" parent="1" source="CCkN2sUoQMnRnyJqYmDi-4" target="CCkN2sUoQMnRnyJqYmDi-6" edge="1">
          <mxGeometry relative="1" as="geometry">
            <mxPoint x="360" y="290" as="sourcePoint" />
            <mxPoint x="520" y="290" as="targetPoint" />
          </mxGeometry>
        </mxCell>
        <mxCell id="CCkN2sUoQMnRnyJqYmDi-49" value="" style="endArrow=none;html=1;rounded=0;exitX=1;exitY=0;exitDx=0;exitDy=0;entryX=0;entryY=0.5;entryDx=0;entryDy=0;" parent="1" source="CCkN2sUoQMnRnyJqYmDi-4" target="CCkN2sUoQMnRnyJqYmDi-7" edge="1">
          <mxGeometry relative="1" as="geometry">
            <mxPoint x="535" y="140" as="sourcePoint" />
            <mxPoint x="635" y="64" as="targetPoint" />
          </mxGeometry>
        </mxCell>
        <mxCell id="CCkN2sUoQMnRnyJqYmDi-50" value="" style="endArrow=none;html=1;rounded=0;exitX=1;exitY=0.25;exitDx=0;exitDy=0;entryX=0;entryY=0.5;entryDx=0;entryDy=0;" parent="1" source="CCkN2sUoQMnRnyJqYmDi-4" target="CCkN2sUoQMnRnyJqYmDi-12" edge="1">
          <mxGeometry relative="1" as="geometry">
            <mxPoint x="360" y="290" as="sourcePoint" />
            <mxPoint x="520" y="290" as="targetPoint" />
          </mxGeometry>
        </mxCell>
        <mxCell id="XM5MWYEIipquem8g6SMK-1" value="&lt;h1 style=&quot;line-height: 150%;&quot;&gt;&lt;div style=&quot;border-color: var(--border-color); font-size: 12px; line-height: 130%;&quot;&gt;&lt;font style=&quot;border-color: var(--border-color);&quot;&gt;&lt;span style=&quot;border-color: var(--border-color); font-weight: 400;&quot;&gt;Comunidad Autonoma&lt;b style=&quot;border-color: var(--border-color);&quot;&gt;&amp;nbsp;( &lt;u&gt;Nombre&lt;/u&gt;&lt;/b&gt;&lt;b style=&quot;border-color: var(--border-color);&quot;&gt;:&lt;/b&gt;&lt;font style=&quot;border-color: var(--border-color);&quot; color=&quot;#808080&quot;&gt;&amp;nbsp;String&lt;/font&gt;&amp;nbsp;, Supercifie : &lt;font color=&quot;#808080&quot;&gt;int&lt;/font&gt;&amp;nbsp; , Poblacion ,&lt;font color=&quot;#999999&quot;&gt; int&lt;/font&gt;)&lt;br&gt;&lt;/span&gt;&lt;/font&gt;&lt;/div&gt;&lt;div style=&quot;border-color: var(--border-color); font-size: 12px; line-height: 130%;&quot;&gt;&lt;font style=&quot;border-color: var(--border-color);&quot;&gt;&lt;span style=&quot;border-color: var(--border-color);&quot;&gt;&lt;span style=&quot;font-weight: 400;&quot;&gt;Provincia&lt;/span&gt;&lt;span style=&quot;border-color: var(--border-color);&quot;&gt;&lt;span style=&quot;font-weight: 400;&quot;&gt;&amp;nbsp;(&lt;/span&gt;&lt;u style=&quot;&quot;&gt;Codigo_provincial&lt;/u&gt;&lt;/span&gt;&lt;span style=&quot;font-weight: 400; border-color: var(--border-color);&quot;&gt;&amp;nbsp;&lt;/span&gt;&lt;span style=&quot;font-weight: 400; border-color: var(--border-color);&quot;&gt;: &lt;font color=&quot;#808080&quot;&gt;int&lt;/font&gt;&lt;/span&gt;&lt;span style=&quot;font-weight: 400; border-color: var(--border-color);&quot;&gt;&amp;nbsp;,Nombre: &lt;font color=&quot;#999999&quot;&gt;String&lt;/font&gt;&amp;nbsp; Superficie : &lt;font color=&quot;#808080&quot;&gt;int, &lt;/font&gt;&lt;font color=&quot;#000000&quot;&gt;Poblacion&lt;/font&gt;&lt;font color=&quot;#808080&quot;&gt; : int &lt;/font&gt;&lt;/span&gt;&lt;span style=&quot;border-color: var(--border-color);&quot;&gt;&lt;span style=&quot;font-weight: 400;&quot;&gt;) &lt;/span&gt;&lt;i&gt;Comunidad [Ref_Comunidad Nombre]&lt;/i&gt;&amp;nbsp;&lt;/span&gt;&lt;br&gt;&lt;/span&gt;&lt;/font&gt;&lt;/div&gt;&lt;div style=&quot;border-color: var(--border-color); font-size: 12px; line-height: 130%;&quot;&gt;&lt;font style=&quot;border-color: var(--border-color);&quot;&gt;&lt;span style=&quot;border-color: var(--border-color); font-weight: 400;&quot;&gt;Localidad&lt;/span&gt;&lt;span style=&quot;border-color: var(--border-color);&quot;&gt;&lt;span style=&quot;font-weight: 400;&quot;&gt;&amp;nbsp;(&lt;/span&gt;&lt;u&gt;Id Localidad&lt;/u&gt;&lt;/span&gt;&lt;span style=&quot;font-weight: 400;&quot;&gt;&amp;nbsp;:&amp;nbsp;&lt;/span&gt;&lt;font style=&quot;font-weight: 400; border-color: var(--border-color);&quot; color=&quot;#808080&quot;&gt;String&lt;/font&gt;&lt;b style=&quot;font-weight: 400; border-color: var(--border-color);&quot;&gt;,&lt;/b&gt;&lt;span style=&quot;font-weight: 400;&quot;&gt;&amp;nbsp;Nombre :&amp;nbsp;&lt;/span&gt;&lt;font style=&quot;font-weight: 400; border-color: var(--border-color);&quot; color=&quot;#808080&quot;&gt;String&lt;/font&gt;&lt;span style=&quot;font-weight: 400;&quot;&gt;&amp;nbsp;,&amp;nbsp; PoblaciÃ³n :&lt;/span&gt;&lt;font style=&quot;font-weight: 400; border-color: var(--border-color);&quot; color=&quot;#808080&quot;&gt;&amp;nbsp;int&lt;/font&gt;&lt;span style=&quot;font-weight: 400;&quot;&gt;&amp;nbsp;&lt;/span&gt;&lt;span style=&quot;font-weight: 400;&quot;&gt;&amp;nbsp;) &lt;/span&gt;&lt;i&gt;Provinca [Ref_Provincia Codigo_provincail]&lt;/i&gt;&lt;/font&gt;&lt;/div&gt;&lt;div style=&quot;border-color: var(--border-color); font-size: 12px; line-height: 130%;&quot;&gt;&lt;br&gt;&lt;/div&gt;&lt;div style=&quot;border-color: var(--border-color); font-size: 12px; line-height: 150%;&quot;&gt;&lt;font style=&quot;border-color: var(--border-color);&quot;&gt;&lt;span style=&quot;border-color: var(--border-color); font-weight: 400;&quot;&gt;CapitalProvincia&lt;/span&gt;&lt;b style=&quot;font-weight: 400; border-color: var(--border-color);&quot;&gt;&amp;nbsp;(&lt;/b&gt;&lt;b style=&quot;border-color: var(--border-color);&quot;&gt;CA [Ref_Cominadad Autonoma Nombre] , PV [Ref_Provincia Codigo Provincial]&lt;/b&gt;&lt;span style=&quot;font-weight: 400;&quot;&gt;)&amp;nbsp;&lt;/span&gt;&lt;/font&gt;&lt;/div&gt;&lt;div style=&quot;border-color: var(--border-color); font-weight: 400; font-size: 12px; line-height: 150%;&quot;&gt;&lt;/div&gt;&lt;i style=&quot;border-color: var(--border-color); font-weight: 400; font-size: 12px;&quot;&gt;&lt;div style=&quot;border-color: var(--border-color); font-style: normal; line-height: 150%;&quot;&gt;&lt;font style=&quot;border-color: var(--border-color);&quot;&gt;CapitalCiudad&lt;b style=&quot;border-color: var(--border-color);&quot;&gt;&amp;nbsp;(&lt;/b&gt;&lt;b style=&quot;border-color: var(--border-color);&quot;&gt;&amp;nbsp;&lt;/b&gt;&lt;/font&gt;&lt;i style=&quot;background-color: initial; border-color: var(--border-color);&quot;&gt;&lt;b style=&quot;border-color: var(--border-color); font-style: normal;&quot;&gt;CC [Ref_Localicad&amp;nbsp; Id_Localidad] , PV [Ref_Provincia Codigo Provincial]&lt;/b&gt;&lt;/i&gt;&lt;span style=&quot;background-color: initial;&quot;&gt;&amp;nbsp;)&lt;/span&gt;&lt;/div&gt;&lt;/i&gt;&lt;/h1&gt;" style="text;html=1;strokeColor=none;fillColor=#dbdbdb;spacing=5;spacingTop=-20;whiteSpace=wrap;overflow=hidden;rounded=0;fontColor=#333333;" parent="1" vertex="1">
          <mxGeometry x="-413" y="340" width="699" height="110" as="geometry" />
        </mxCell>
      </root>
    </mxGraphModel>
  </diagram>
</mxfile>
